<?xml version="1.0" encoding="UTF-8" standalone="no"?>
<!DOCTYPE svg PUBLIC "-//W3C//DTD SVG 1.1//EN"
 "http://www.w3.org/Graphics/SVG/1.1/DTD/svg11.dtd">
<!-- Generated by graphviz version 2.40.1 (20161225.0304)
 -->
<!-- Title: controllers_diagram Pages: 1 -->
<svg width="724pt" height="645pt"
 viewBox="0.00 0.00 724.32 645.00" xmlns="http://www.w3.org/2000/svg" xmlns:xlink="http://www.w3.org/1999/xlink">
<g id="graph0" class="graph" transform="scale(1 1) rotate(0) translate(4 641)">
<title>controllers_diagram</title>
<polygon fill="transparent" stroke="transparent" points="-4,4 -4,-641 720.3242,-641 720.3242,4 -4,4"/>
<!-- _diagram_info -->
<g id="node1" class="node">
<title>_diagram_info</title>
<text text-anchor="start" x="136" y="-186.6" font-family="Times,serif" font-size="13.00" fill="#000000">Controllers diagram</text>
<text text-anchor="start" x="136" y="-173.6" font-family="Times,serif" font-size="13.00" fill="#000000">Date: Dec 30 2018 &#45; 10:18</text>
<text text-anchor="start" x="136" y="-160.6" font-family="Times,serif" font-size="13.00" fill="#000000">Migration version: 20181222013957</text>
<text text-anchor="start" x="136" y="-147.6" font-family="Times,serif" font-size="13.00" fill="#000000">Generated by RailRoady 1.5.3</text>
<text text-anchor="start" x="136" y="-134.6" font-family="Times,serif" font-size="13.00" fill="#000000">http://railroady.prestonlee.com</text>
</g>
<!-- ApplicationController -->
<g id="node2" class="node">
<title>ApplicationController</title>
<path fill="none" stroke="#000000" d="M572,-64.5C572,-64.5 687.6416,-64.5 687.6416,-64.5 693.6416,-64.5 699.6416,-70.5 699.6416,-76.5 699.6416,-76.5 699.6416,-144.5 699.6416,-144.5 699.6416,-150.5 693.6416,-156.5 687.6416,-156.5 687.6416,-156.5 572,-156.5 572,-156.5 566,-156.5 560,-150.5 560,-144.5 560,-144.5 560,-76.5 560,-76.5 560,-70.5 566,-64.5 572,-64.5"/>
<text text-anchor="middle" x="629.8208" y="-141.3" font-family="Times,serif" font-size="14.00" fill="#000000">ApplicationController</text>
<polyline fill="none" stroke="#000000" points="560,-134.5 699.6416,-134.5 "/>
<polyline fill="none" stroke="#000000" points="560,-110.5 699.6416,-110.5 "/>
<polyline fill="none" stroke="#000000" points="560,-86.5 699.6416,-86.5 "/>
<text text-anchor="start" x="568" y="-71.3" font-family="Times,serif" font-size="14.00" fill="#000000">_layout</text>
</g>
<!-- UsersController -->
<g id="node3" class="node">
<title>UsersController</title>
<path fill="none" stroke="#000000" d="M76,-320.5C76,-320.5 157.4277,-320.5 157.4277,-320.5 163.4277,-320.5 169.4277,-326.5 169.4277,-332.5 169.4277,-332.5 169.4277,-454.5 169.4277,-454.5 169.4277,-460.5 163.4277,-466.5 157.4277,-466.5 157.4277,-466.5 76,-466.5 76,-466.5 70,-466.5 64,-460.5 64,-454.5 64,-454.5 64,-332.5 64,-332.5 64,-326.5 70,-320.5 76,-320.5"/>
<text text-anchor="middle" x="116.7139" y="-451.3" font-family="Times,serif" font-size="14.00" fill="#000000">UsersController</text>
<polyline fill="none" stroke="#000000" points="64,-444.5 169.4277,-444.5 "/>
<text text-anchor="start" x="72" y="-429.3" font-family="Times,serif" font-size="14.00" fill="#000000">dashboard</text>
<text text-anchor="start" x="72" y="-415.3" font-family="Times,serif" font-size="14.00" fill="#000000">follow</text>
<text text-anchor="start" x="72" y="-401.3" font-family="Times,serif" font-size="14.00" fill="#000000">index</text>
<text text-anchor="start" x="72" y="-387.3" font-family="Times,serif" font-size="14.00" fill="#000000">show</text>
<polyline fill="none" stroke="#000000" points="64,-380.5 169.4277,-380.5 "/>
<polyline fill="none" stroke="#000000" points="64,-356.5 169.4277,-356.5 "/>
<text text-anchor="start" x="72" y="-341.3" font-family="Times,serif" font-size="14.00" fill="#000000">_layout</text>
<text text-anchor="start" x="72" y="-327.3" font-family="Times,serif" font-size="14.00" fill="#000000">set_user</text>
</g>
<!-- HomeController -->
<g id="node4" class="node">
<title>HomeController</title>
<path fill="none" stroke="#000000" d="M12,-.5C12,-.5 95.7588,-.5 95.7588,-.5 101.7588,-.5 107.7588,-6.5 107.7588,-12.5 107.7588,-12.5 107.7588,-78.5 107.7588,-78.5 107.7588,-84.5 101.7588,-90.5 95.7588,-90.5 95.7588,-90.5 12,-90.5 12,-90.5 6,-90.5 0,-84.5 0,-78.5 0,-78.5 0,-12.5 0,-12.5 0,-6.5 6,-.5 12,-.5"/>
<text text-anchor="middle" x="53.8794" y="-75.3" font-family="Times,serif" font-size="14.00" fill="#000000">HomeController</text>
<polyline fill="none" stroke="#000000" points="0,-68.5 107.7588,-68.5 "/>
<text text-anchor="start" x="8" y="-53.3" font-family="Times,serif" font-size="14.00" fill="#000000">index</text>
<polyline fill="none" stroke="#000000" points="0,-46.5 107.7588,-46.5 "/>
<polyline fill="none" stroke="#000000" points="0,-22.5 107.7588,-22.5 "/>
<text text-anchor="start" x="8" y="-7.3" font-family="Times,serif" font-size="14.00" fill="#000000">_layout</text>
</g>
<!-- Users::OmniauthCallbacksController -->
<g id="node5" class="node">
<title>Users::OmniauthCallbacksController</title>
<path fill="none" stroke="#000000" d="M428,-416.5C428,-416.5 628.4072,-416.5 628.4072,-416.5 634.4072,-416.5 640.4072,-422.5 640.4072,-428.5 640.4072,-428.5 640.4072,-496.5 640.4072,-496.5 640.4072,-502.5 634.4072,-508.5 628.4072,-508.5 628.4072,-508.5 428,-508.5 428,-508.5 422,-508.5 416,-502.5 416,-496.5 416,-496.5 416,-428.5 416,-428.5 416,-422.5 422,-416.5 428,-416.5"/>
<text text-anchor="middle" x="528.2036" y="-493.3" font-family="Times,serif" font-size="14.00" fill="#000000">Users::OmniauthCallbacksController</text>
<polyline fill="none" stroke="#000000" points="416,-486.5 640.4072,-486.5 "/>
<polyline fill="none" stroke="#000000" points="416,-462.5 640.4072,-462.5 "/>
<polyline fill="none" stroke="#000000" points="416,-438.5 640.4072,-438.5 "/>
<text text-anchor="start" x="424" y="-423.3" font-family="Times,serif" font-size="14.00" fill="#000000">_layout</text>
</g>
<!-- Users::PasswordsController -->
<g id="node6" class="node">
<title>Users::PasswordsController</title>
<path fill="none" stroke="#000000" d="M556,-544.5C556,-544.5 704.3242,-544.5 704.3242,-544.5 710.3242,-544.5 716.3242,-550.5 716.3242,-556.5 716.3242,-556.5 716.3242,-624.5 716.3242,-624.5 716.3242,-630.5 710.3242,-636.5 704.3242,-636.5 704.3242,-636.5 556,-636.5 556,-636.5 550,-636.5 544,-630.5 544,-624.5 544,-624.5 544,-556.5 544,-556.5 544,-550.5 550,-544.5 556,-544.5"/>
<text text-anchor="middle" x="630.1621" y="-621.3" font-family="Times,serif" font-size="14.00" fill="#000000">Users::PasswordsController</text>
<polyline fill="none" stroke="#000000" points="544,-614.5 716.3242,-614.5 "/>
<polyline fill="none" stroke="#000000" points="544,-590.5 716.3242,-590.5 "/>
<polyline fill="none" stroke="#000000" points="544,-566.5 716.3242,-566.5 "/>
<text text-anchor="start" x="552" y="-551.3" font-family="Times,serif" font-size="14.00" fill="#000000">_layout</text>
</g>
<!-- Users::SessionsController -->
<g id="node7" class="node">
<title>Users::SessionsController</title>
<path fill="none" stroke="#000000" d="M108,-544.5C108,-544.5 245.4414,-544.5 245.4414,-544.5 251.4414,-544.5 257.4414,-550.5 257.4414,-556.5 257.4414,-556.5 257.4414,-624.5 257.4414,-624.5 257.4414,-630.5 251.4414,-636.5 245.4414,-636.5 245.4414,-636.5 108,-636.5 108,-636.5 102,-636.5 96,-630.5 96,-624.5 96,-624.5 96,-556.5 96,-556.5 96,-550.5 102,-544.5 108,-544.5"/>
<text text-anchor="middle" x="176.7207" y="-621.3" font-family="Times,serif" font-size="14.00" fill="#000000">Users::SessionsController</text>
<polyline fill="none" stroke="#000000" points="96,-614.5 257.4414,-614.5 "/>
<polyline fill="none" stroke="#000000" points="96,-590.5 257.4414,-590.5 "/>
<polyline fill="none" stroke="#000000" points="96,-566.5 257.4414,-566.5 "/>
<text text-anchor="start" x="104" y="-551.3" font-family="Times,serif" font-size="14.00" fill="#000000">_layout</text>
</g>
<!-- Users::UnlocksController -->
<g id="node8" class="node">
<title>Users::UnlocksController</title>
<path fill="none" stroke="#000000" d="M380,-64.5C380,-64.5 515.8691,-64.5 515.8691,-64.5 521.8691,-64.5 527.8691,-70.5 527.8691,-76.5 527.8691,-76.5 527.8691,-144.5 527.8691,-144.5 527.8691,-150.5 521.8691,-156.5 515.8691,-156.5 515.8691,-156.5 380,-156.5 380,-156.5 374,-156.5 368,-150.5 368,-144.5 368,-144.5 368,-76.5 368,-76.5 368,-70.5 374,-64.5 380,-64.5"/>
<text text-anchor="middle" x="447.9346" y="-141.3" font-family="Times,serif" font-size="14.00" fill="#000000">Users::UnlocksController</text>
<polyline fill="none" stroke="#000000" points="368,-134.5 527.8691,-134.5 "/>
<polyline fill="none" stroke="#000000" points="368,-110.5 527.8691,-110.5 "/>
<polyline fill="none" stroke="#000000" points="368,-86.5 527.8691,-86.5 "/>
<text text-anchor="start" x="376" y="-71.3" font-family="Times,serif" font-size="14.00" fill="#000000">_layout</text>
</g>
<!-- Users::ConfirmationsController -->
<g id="node9" class="node">
<title>Users::ConfirmationsController</title>
<path fill="none" stroke="#000000" d="M460,-192.5C460,-192.5 629.3242,-192.5 629.3242,-192.5 635.3242,-192.5 641.3242,-198.5 641.3242,-204.5 641.3242,-204.5 641.3242,-272.5 641.3242,-272.5 641.3242,-278.5 635.3242,-284.5 629.3242,-284.5 629.3242,-284.5 460,-284.5 460,-284.5 454,-284.5 448,-278.5 448,-272.5 448,-272.5 448,-204.5 448,-204.5 448,-198.5 454,-192.5 460,-192.5"/>
<text text-anchor="middle" x="544.6621" y="-269.3" font-family="Times,serif" font-size="14.00" fill="#000000">Users::ConfirmationsController</text>
<polyline fill="none" stroke="#000000" points="448,-262.5 641.3242,-262.5 "/>
<polyline fill="none" stroke="#000000" points="448,-238.5 641.3242,-238.5 "/>
<polyline fill="none" stroke="#000000" points="448,-214.5 641.3242,-214.5 "/>
<text text-anchor="start" x="456" y="-199.3" font-family="Times,serif" font-size="14.00" fill="#000000">_layout</text>
</g>
<!-- Users::RegistrationsController -->
<g id="node10" class="node">
<title>Users::RegistrationsController</title>
<path fill="none" stroke="#000000" d="M220,-240.5C220,-240.5 407.1523,-240.5 407.1523,-240.5 413.1523,-240.5 419.1523,-246.5 419.1523,-252.5 419.1523,-252.5 419.1523,-372.5 419.1523,-372.5 419.1523,-378.5 413.1523,-384.5 407.1523,-384.5 407.1523,-384.5 220,-384.5 220,-384.5 214,-384.5 208,-378.5 208,-372.5 208,-372.5 208,-252.5 208,-252.5 208,-246.5 214,-240.5 220,-240.5"/>
<text text-anchor="middle" x="313.5762" y="-369.3" font-family="Times,serif" font-size="14.00" fill="#000000">Users::RegistrationsController</text>
<polyline fill="none" stroke="#000000" points="208,-362.5 419.1523,-362.5 "/>
<text text-anchor="start" x="216" y="-347.3" font-family="Times,serif" font-size="14.00" fill="#000000">create</text>
<text text-anchor="start" x="216" y="-333.3" font-family="Times,serif" font-size="14.00" fill="#000000">edit</text>
<text text-anchor="start" x="216" y="-319.3" font-family="Times,serif" font-size="14.00" fill="#000000">new</text>
<text text-anchor="start" x="216" y="-305.3" font-family="Times,serif" font-size="14.00" fill="#000000">update</text>
<polyline fill="none" stroke="#000000" points="208,-298.5 419.1523,-298.5 "/>
<text text-anchor="start" x="216" y="-283.3" font-family="Times,serif" font-size="14.00" fill="#000000">configure_account_update_params</text>
<text text-anchor="start" x="216" y="-269.3" font-family="Times,serif" font-size="14.00" fill="#000000">configure_sign_up_params</text>
<polyline fill="none" stroke="#000000" points="208,-262.5 419.1523,-262.5 "/>
<text text-anchor="start" x="216" y="-247.3" font-family="Times,serif" font-size="14.00" fill="#000000">_layout</text>
</g>
<!-- PostsController -->
<g id="node11" class="node">
<title>PostsController</title>
<path fill="none" stroke="#000000" d="M300,-416.5C300,-416.5 379.1172,-416.5 379.1172,-416.5 385.1172,-416.5 391.1172,-422.5 391.1172,-428.5 391.1172,-428.5 391.1172,-606.5 391.1172,-606.5 391.1172,-612.5 385.1172,-618.5 379.1172,-618.5 379.1172,-618.5 300,-618.5 300,-618.5 294,-618.5 288,-612.5 288,-606.5 288,-606.5 288,-428.5 288,-428.5 288,-422.5 294,-416.5 300,-416.5"/>
<text text-anchor="middle" x="339.5586" y="-603.3" font-family="Times,serif" font-size="14.00" fill="#000000">PostsController</text>
<polyline fill="none" stroke="#000000" points="288,-596.5 391.1172,-596.5 "/>
<text text-anchor="start" x="296" y="-581.3" font-family="Times,serif" font-size="14.00" fill="#000000">create</text>
<text text-anchor="start" x="296" y="-567.3" font-family="Times,serif" font-size="14.00" fill="#000000">destroy</text>
<text text-anchor="start" x="296" y="-553.3" font-family="Times,serif" font-size="14.00" fill="#000000">edit</text>
<text text-anchor="start" x="296" y="-539.3" font-family="Times,serif" font-size="14.00" fill="#000000">index</text>
<text text-anchor="start" x="296" y="-525.3" font-family="Times,serif" font-size="14.00" fill="#000000">new</text>
<text text-anchor="start" x="296" y="-511.3" font-family="Times,serif" font-size="14.00" fill="#000000">show</text>
<text text-anchor="start" x="296" y="-497.3" font-family="Times,serif" font-size="14.00" fill="#000000">update</text>
<polyline fill="none" stroke="#000000" points="288,-490.5 391.1172,-490.5 "/>
<polyline fill="none" stroke="#000000" points="288,-466.5 391.1172,-466.5 "/>
<text text-anchor="start" x="296" y="-451.3" font-family="Times,serif" font-size="14.00" fill="#000000">_layout</text>
<text text-anchor="start" x="296" y="-437.3" font-family="Times,serif" font-size="14.00" fill="#000000">post_params</text>
<text text-anchor="start" x="296" y="-423.3" font-family="Times,serif" font-size="14.00" fill="#000000">set_post</text>
</g>
</g>
</svg>
