<?xml version="1.0" encoding="UTF-8" standalone="no"?>
<!DOCTYPE svg PUBLIC "-//W3C//DTD SVG 1.1//EN"
 "http://www.w3.org/Graphics/SVG/1.1/DTD/svg11.dtd">
<!-- Generated by graphviz version 2.40.1 (20161225.0304)
 -->
<!-- Title: models_diagram Pages: 1 -->
<svg width="884pt" height="482pt"
 viewBox="0.00 0.00 884.32 482.00" xmlns="http://www.w3.org/2000/svg" xmlns:xlink="http://www.w3.org/1999/xlink">
<g id="graph0" class="graph" transform="scale(1 1) rotate(0) translate(4 478)">
<title>models_diagram</title>
<polygon fill="transparent" stroke="transparent" points="-4,4 -4,-478 880.3225,-478 880.3225,4 -4,4"/>
<!-- _diagram_info -->
<g id="node1" class="node">
<title>_diagram_info</title>
<text text-anchor="start" x="8" y="-445.6" font-family="Times,serif" font-size="13.00" fill="#000000">Models diagram</text>
<text text-anchor="start" x="8" y="-432.6" font-family="Times,serif" font-size="13.00" fill="#000000">Date: Dec 30 2018 &#45; 10:17</text>
<text text-anchor="start" x="8" y="-419.6" font-family="Times,serif" font-size="13.00" fill="#000000">Migration version: 20181222013957</text>
<text text-anchor="start" x="8" y="-406.6" font-family="Times,serif" font-size="13.00" fill="#000000">Generated by RailRoady 1.5.3</text>
<text text-anchor="start" x="8" y="-393.6" font-family="Times,serif" font-size="13.00" fill="#000000">http://railroady.prestonlee.com</text>
</g>
<!-- UserPost -->
<g id="node2" class="node">
<title>UserPost</title>
<path fill="none" stroke="#000000" d="M156.8254,-179.5C156.8254,-179.5 380.55,-179.5 380.55,-179.5 386.55,-179.5 392.55,-185.5 392.55,-191.5 392.55,-191.5 392.55,-295.5 392.55,-295.5 392.55,-301.5 386.55,-307.5 380.55,-307.5 380.55,-307.5 156.8254,-307.5 156.8254,-307.5 150.8254,-307.5 144.8254,-301.5 144.8254,-295.5 144.8254,-295.5 144.8254,-191.5 144.8254,-191.5 144.8254,-185.5 150.8254,-179.5 156.8254,-179.5"/>
<text text-anchor="middle" x="268.6877" y="-292.3" font-family="Times,serif" font-size="14.00" fill="#000000">UserPost</text>
<polyline fill="none" stroke="#000000" points="144.8254,-285.5 392.55,-285.5 "/>
<text text-anchor="start" x="152.8254" y="-270.3" font-family="Times,serif" font-size="14.00" fill="#000000">id :bigint</text>
<text text-anchor="start" x="152.8254" y="-256.3" font-family="Times,serif" font-size="14.00" fill="#000000">user_id :bigint</text>
<text text-anchor="start" x="152.8254" y="-242.3" font-family="Times,serif" font-size="14.00" fill="#000000">post_id :bigint</text>
<text text-anchor="start" x="152.8254" y="-228.3" font-family="Times,serif" font-size="14.00" fill="#000000">reblog_user :bigint</text>
<text text-anchor="start" x="152.8254" y="-214.3" font-family="Times,serif" font-size="14.00" fill="#000000">original :boolean</text>
<text text-anchor="start" x="152.8254" y="-200.3" font-family="Times,serif" font-size="14.00" fill="#000000">created_at :timestamp without time zone</text>
<text text-anchor="start" x="152.8254" y="-186.3" font-family="Times,serif" font-size="14.00" fill="#000000">updated_at :timestamp without time zone</text>
</g>
<!-- Follow -->
<g id="node3" class="node">
<title>Follow</title>
<path fill="none" stroke="#000000" d="M456.8254,-.5C456.8254,-.5 680.55,-.5 680.55,-.5 686.55,-.5 692.55,-6.5 692.55,-12.5 692.55,-12.5 692.55,-88.5 692.55,-88.5 692.55,-94.5 686.55,-100.5 680.55,-100.5 680.55,-100.5 456.8254,-100.5 456.8254,-100.5 450.8254,-100.5 444.8254,-94.5 444.8254,-88.5 444.8254,-88.5 444.8254,-12.5 444.8254,-12.5 444.8254,-6.5 450.8254,-.5 456.8254,-.5"/>
<text text-anchor="middle" x="568.6877" y="-85.3" font-family="Times,serif" font-size="14.00" fill="#000000">Follow</text>
<polyline fill="none" stroke="#000000" points="444.8254,-78.5 692.55,-78.5 "/>
<text text-anchor="start" x="452.8254" y="-63.3" font-family="Times,serif" font-size="14.00" fill="#000000">id :bigint</text>
<text text-anchor="start" x="452.8254" y="-49.3" font-family="Times,serif" font-size="14.00" fill="#000000">follower_id :bigint</text>
<text text-anchor="start" x="452.8254" y="-35.3" font-family="Times,serif" font-size="14.00" fill="#000000">following_id :bigint</text>
<text text-anchor="start" x="452.8254" y="-21.3" font-family="Times,serif" font-size="14.00" fill="#000000">created_at :timestamp without time zone</text>
<text text-anchor="start" x="452.8254" y="-7.3" font-family="Times,serif" font-size="14.00" fill="#000000">updated_at :timestamp without time zone</text>
</g>
<!-- ApplicationRecord -->
<g id="node4" class="node">
<title>ApplicationRecord</title>
<ellipse fill="none" stroke="#000000" cx="568.6877" cy="-423.5" rx="77.2916" ry="18"/>
<text text-anchor="middle" x="568.6877" y="-419.3" font-family="Times,serif" font-size="14.00" fill="#000000">ApplicationRecord</text>
</g>
<!-- Post -->
<g id="node5" class="node">
<title>Post</title>
<path fill="none" stroke="#000000" d="M237.8254,-373.5C237.8254,-373.5 461.55,-373.5 461.55,-373.5 467.55,-373.5 473.55,-379.5 473.55,-385.5 473.55,-385.5 473.55,-461.5 473.55,-461.5 473.55,-467.5 467.55,-473.5 461.55,-473.5 461.55,-473.5 237.8254,-473.5 237.8254,-473.5 231.8254,-473.5 225.8254,-467.5 225.8254,-461.5 225.8254,-461.5 225.8254,-385.5 225.8254,-385.5 225.8254,-379.5 231.8254,-373.5 237.8254,-373.5"/>
<text text-anchor="middle" x="349.6877" y="-458.3" font-family="Times,serif" font-size="14.00" fill="#000000">Post</text>
<polyline fill="none" stroke="#000000" points="225.8254,-451.5 473.55,-451.5 "/>
<text text-anchor="start" x="233.8254" y="-436.3" font-family="Times,serif" font-size="14.00" fill="#000000">id :bigint</text>
<text text-anchor="start" x="233.8254" y="-422.3" font-family="Times,serif" font-size="14.00" fill="#000000">type :integer</text>
<text text-anchor="start" x="233.8254" y="-408.3" font-family="Times,serif" font-size="14.00" fill="#000000">data :jsonb</text>
<text text-anchor="start" x="233.8254" y="-394.3" font-family="Times,serif" font-size="14.00" fill="#000000">created_at :timestamp without time zone</text>
<text text-anchor="start" x="233.8254" y="-380.3" font-family="Times,serif" font-size="14.00" fill="#000000">updated_at :timestamp without time zone</text>
</g>
<!-- Post&#45;&gt;UserPost -->
<g id="edge1" class="edge">
<title>Post&#45;&gt;UserPost</title>
<path fill="none" stroke="#55445f" d="M323.8398,-366.0601C316.8283,-350.4789 309.1395,-333.3929 301.7876,-317.0553"/>
<ellipse fill="none" stroke="#55445f" cx="325.4832" cy="-369.7123" rx="4" ry="4"/>
<polygon fill="#55445f" stroke="#55445f" points="301.6092,-316.6586 301.6091,-305.6928 299.5573,-312.099 297.5055,-307.5394 297.5055,-307.5394 297.5055,-307.5394 299.5573,-312.099 293.4018,-309.3861 301.6092,-316.6586 301.6092,-316.6586"/>
</g>
<!-- User -->
<g id="node6" class="node">
<title>User</title>
<path fill="none" stroke="#000000" d="M422.053,-151.5C422.053,-151.5 717.3225,-151.5 717.3225,-151.5 723.3225,-151.5 729.3225,-157.5 729.3225,-163.5 729.3225,-163.5 729.3225,-323.5 729.3225,-323.5 729.3225,-329.5 723.3225,-335.5 717.3225,-335.5 717.3225,-335.5 422.053,-335.5 422.053,-335.5 416.053,-335.5 410.053,-329.5 410.053,-323.5 410.053,-323.5 410.053,-163.5 410.053,-163.5 410.053,-157.5 416.053,-151.5 422.053,-151.5"/>
<text text-anchor="middle" x="569.6877" y="-320.3" font-family="Times,serif" font-size="14.00" fill="#000000">User</text>
<polyline fill="none" stroke="#000000" points="410.053,-313.5 729.3225,-313.5 "/>
<text text-anchor="start" x="418.053" y="-298.3" font-family="Times,serif" font-size="14.00" fill="#000000">remember_created_at :timestamp without time zone</text>
<text text-anchor="start" x="418.053" y="-284.3" font-family="Times,serif" font-size="14.00" fill="#000000">username :character varying</text>
<text text-anchor="start" x="418.053" y="-270.3" font-family="Times,serif" font-size="14.00" fill="#000000">description :text</text>
<text text-anchor="start" x="418.053" y="-256.3" font-family="Times,serif" font-size="14.00" fill="#000000">avatar_url :character varying</text>
<text text-anchor="start" x="418.053" y="-242.3" font-family="Times,serif" font-size="14.00" fill="#000000">created_at :timestamp without time zone</text>
<text text-anchor="start" x="418.053" y="-228.3" font-family="Times,serif" font-size="14.00" fill="#000000">updated_at :timestamp without time zone</text>
<text text-anchor="start" x="418.053" y="-214.3" font-family="Times,serif" font-size="14.00" fill="#000000">email :character varying</text>
<text text-anchor="start" x="418.053" y="-200.3" font-family="Times,serif" font-size="14.00" fill="#000000">encrypted_password :character varying</text>
<text text-anchor="start" x="418.053" y="-186.3" font-family="Times,serif" font-size="14.00" fill="#000000">reset_password_token :character varying</text>
<text text-anchor="start" x="418.053" y="-172.3" font-family="Times,serif" font-size="14.00" fill="#000000">reset_password_sent_at :timestamp without time zone</text>
<text text-anchor="start" x="418.053" y="-158.3" font-family="Times,serif" font-size="14.00" fill="#000000">id :bigint</text>
</g>
<!-- Post&#45;&gt;User -->
<g id="edge2" class="edge">
<title>Post&#45;&gt;User</title>
<path fill="none" stroke="#75ad0a" d="M418.8417,-366.9195C428.5318,-358.9912 438.7149,-350.6596 449.0241,-342.2248"/>
<polygon fill="#75ad0a" stroke="#75ad0a" points="418.7096,-367.0276 408.1204,-369.8771 414.8398,-370.1938 410.97,-373.36 410.97,-373.36 410.97,-373.36 414.8398,-370.1938 413.8196,-376.8428 418.7096,-367.0276 418.7096,-367.0276"/>
<polygon fill="#75ad0a" stroke="#75ad0a" points="449.1865,-342.092 459.7757,-339.2424 453.0563,-338.9257 456.9261,-335.7595 456.9261,-335.7595 456.9261,-335.7595 453.0563,-338.9257 454.0765,-332.2767 449.1865,-342.092 449.1865,-342.092"/>
</g>
<!-- User&#45;&gt;Follow -->
<g id="edge3" class="edge">
<title>User&#45;&gt;Follow</title>
<path fill="none" stroke="#6a5fa4" d="M514.0849,-143.6165C512.9546,-140.0776 511.9391,-136.5332 511.0598,-133 509.1454,-125.3071 509.7201,-117.7494 511.9616,-110.5207"/>
<ellipse fill="none" stroke="#6a5fa4" cx="515.4374" cy="-147.5646" rx="4" ry="4"/>
<polygon fill="#6a5fa4" stroke="#6a5fa4" points="512.1297,-110.117 520.1284,-102.6155 514.052,-105.5012 515.9742,-100.8855 515.9742,-100.8855 515.9742,-100.8855 514.052,-105.5012 511.8201,-99.1555 512.1297,-110.117 512.1297,-110.117"/>
<text text-anchor="middle" x="559.5017" y="-121.8" font-family="Times,serif" font-size="14.00" fill="#000000">follower_records</text>
</g>
<!-- User&#45;&gt;Follow -->
<g id="edge5" class="edge">
<title>User&#45;&gt;Follow</title>
<path fill="none" stroke="#e0feb2" d="M609.2045,-143.1052C609.4516,-134.9692 608.7215,-126.8587 606.6877,-119 605.9121,-116.0027 604.9738,-112.9968 603.9081,-110.0074"/>
<ellipse fill="none" stroke="#e0feb2" cx="608.9188" cy="-147.2509" rx="4" ry="4"/>
<polygon fill="#e0feb2" stroke="#e0feb2" points="603.8365,-109.8289 604.2899,-98.8724 601.9749,-105.1884 600.1134,-100.5478 600.1134,-100.5478 600.1134,-100.5478 601.9749,-105.1884 595.9369,-102.2233 603.8365,-109.8289 603.8365,-109.8289"/>
<text text-anchor="middle" x="661.0085" y="-121.8" font-family="Times,serif" font-size="14.00" fill="#000000">following_records</text>
</g>
<!-- User&#45;&gt;User -->
<g id="edge4" class="edge">
<title>User&#45;&gt;User</title>
<path fill="none" stroke="#20d6f2" d="M739.676,-248.8356C744.563,-247.3774 747.3225,-245.5989 747.3225,-243.5 747.3225,-241.4011 744.563,-239.6226 739.676,-238.1644"/>
<polygon fill="#20d6f2" stroke="#20d6f2" points="739.3358,-248.9078 728.6186,-246.5853 734.445,-249.9474 729.5543,-250.987 729.5543,-250.987 729.5543,-250.987 734.445,-249.9474 730.4899,-255.3887 739.3358,-248.9078 739.3358,-248.9078"/>
<polygon fill="#20d6f2" stroke="#20d6f2" points="739.3358,-238.0922 730.4899,-231.6113 734.445,-237.0526 729.5543,-236.013 729.5543,-236.013 729.5543,-236.013 734.445,-237.0526 728.6186,-240.4147 739.3358,-238.0922 739.3358,-238.0922"/>
<text text-anchor="middle" x="773.7605" y="-239.3" font-family="Times,serif" font-size="14.00" fill="#000000">followers</text>
</g>
<!-- User&#45;&gt;User -->
<g id="edge6" class="edge">
<title>User&#45;&gt;User</title>
<path fill="none" stroke="#4f060a" d="M739.5416,-263.192C774.5832,-260.8895 800.1985,-254.3255 800.1985,-243.5 800.1985,-232.6745 774.5832,-226.1105 739.5416,-223.808"/>
<polygon fill="#4f060a" stroke="#4f060a" points="739.4076,-263.199 729.1834,-259.2347 734.4146,-263.4637 729.4216,-263.7284 729.4216,-263.7284 729.4216,-263.7284 734.4146,-263.4637 729.6599,-268.2221 739.4076,-263.199 739.4076,-263.199"/>
<polygon fill="#4f060a" stroke="#4f060a" points="739.4076,-223.801 729.6599,-218.7779 734.4146,-223.5363 729.4216,-223.2716 729.4216,-223.2716 729.4216,-223.2716 734.4146,-223.5363 729.1834,-227.7653 739.4076,-223.801 739.4076,-223.801"/>
<text text-anchor="middle" x="830.1433" y="-239.3" font-family="Times,serif" font-size="14.00" fill="#000000">followings</text>
</g>
</g>
</svg>
