<?xml version="1.0" encoding="UTF-8" standalone="no"?>
<!DOCTYPE svg PUBLIC "-//W3C//DTD SVG 1.1//EN"
 "http://www.w3.org/Graphics/SVG/1.1/DTD/svg11.dtd">
<!-- Generated by graphviz version 2.40.1 (20161225.0304)
 -->
<!-- Title: models_diagram Pages: 1 -->
<svg width="494pt" height="240pt"
 viewBox="0.00 0.00 493.69 240.00" xmlns="http://www.w3.org/2000/svg" xmlns:xlink="http://www.w3.org/1999/xlink">
<g id="graph0" class="graph" transform="scale(1 1) rotate(0) translate(4 236)">
<title>models_diagram</title>
<polygon fill="transparent" stroke="transparent" points="-4,4 -4,-236 489.6877,-236 489.6877,4 -4,4"/>
<!-- _diagram_info -->
<g id="node1" class="node">
<title>_diagram_info</title>
<text text-anchor="start" x="8" y="-217.6" font-family="Times,serif" font-size="13.00" fill="#000000">Models diagram</text>
<text text-anchor="start" x="8" y="-204.6" font-family="Times,serif" font-size="13.00" fill="#000000">Date: Dec 30 2018 &#45; 10:18</text>
<text text-anchor="start" x="8" y="-191.6" font-family="Times,serif" font-size="13.00" fill="#000000">Migration version: 20181222013957</text>
<text text-anchor="start" x="8" y="-178.6" font-family="Times,serif" font-size="13.00" fill="#000000">Generated by RailRoady 1.5.3</text>
<text text-anchor="start" x="8" y="-165.6" font-family="Times,serif" font-size="13.00" fill="#000000">http://railroady.prestonlee.com</text>
</g>
<!-- UserPost -->
<g id="node2" class="node">
<title>UserPost</title>
<ellipse fill="none" stroke="#000000" cx="224.6877" cy="-104" rx="42.087" ry="18"/>
<text text-anchor="middle" x="224.6877" y="-99.8" font-family="Times,serif" font-size="14.00" fill="#000000">UserPost</text>
</g>
<!-- Follow -->
<g id="node3" class="node">
<title>Follow</title>
<ellipse fill="none" stroke="#000000" cx="311.6877" cy="-18" rx="35.3389" ry="18"/>
<text text-anchor="middle" x="311.6877" y="-13.8" font-family="Times,serif" font-size="14.00" fill="#000000">Follow</text>
</g>
<!-- ApplicationRecord -->
<g id="node4" class="node">
<title>ApplicationRecord</title>
<ellipse fill="none" stroke="#000000" cx="374.6877" cy="-195.5" rx="77.2916" ry="18"/>
<text text-anchor="middle" x="374.6877" y="-191.3" font-family="Times,serif" font-size="14.00" fill="#000000">ApplicationRecord</text>
</g>
<!-- Post -->
<g id="node5" class="node">
<title>Post</title>
<ellipse fill="none" stroke="#000000" cx="252.6877" cy="-195.5" rx="27" ry="18"/>
<text text-anchor="middle" x="252.6877" y="-191.3" font-family="Times,serif" font-size="14.00" fill="#000000">Post</text>
</g>
<!-- Post&#45;&gt;UserPost -->
<g id="edge1" class="edge">
<title>Post&#45;&gt;UserPost</title>
<path fill="none" stroke="#dc18b6" d="M244.8275,-169.8139C241.1765,-157.883 236.8308,-143.6819 233.1124,-131.5304"/>
<ellipse fill="none" stroke="#dc18b6" cx="246.1186" cy="-174.033" rx="4" ry="4"/>
<polygon fill="#dc18b6" stroke="#dc18b6" points="233.0916,-131.4625 234.4684,-120.5834 231.6285,-126.6813 230.1654,-121.9002 230.1654,-121.9002 230.1654,-121.9002 231.6285,-126.6813 225.8624,-123.217 233.0916,-131.4625 233.0916,-131.4625"/>
</g>
<!-- User -->
<g id="node6" class="node">
<title>User</title>
<ellipse fill="none" stroke="#000000" cx="311.6877" cy="-104" rx="27" ry="18"/>
<text text-anchor="middle" x="311.6877" y="-99.8" font-family="Times,serif" font-size="14.00" fill="#000000">User</text>
</g>
<!-- Post&#45;&gt;User -->
<g id="edge2" class="edge">
<title>Post&#45;&gt;User</title>
<path fill="none" stroke="#fecea9" d="M269.1452,-169.977C277.3228,-157.2947 287.1747,-142.0161 295.3376,-129.3566"/>
<polygon fill="#fecea9" stroke="#fecea9" points="268.9285,-170.3132 259.7273,-176.2788 266.2189,-174.5153 263.5093,-178.7175 263.5093,-178.7175 263.5093,-178.7175 266.2189,-174.5153 267.2912,-181.1561 268.9285,-170.3132 268.9285,-170.3132"/>
<polygon fill="#fecea9" stroke="#fecea9" points="295.5156,-129.0804 304.7168,-123.1148 298.2252,-124.8783 300.9348,-120.6761 300.9348,-120.6761 300.9348,-120.6761 298.2252,-124.8783 297.1529,-118.2375 295.5156,-129.0804 295.5156,-129.0804"/>
</g>
<!-- User&#45;&gt;Follow -->
<g id="edge3" class="edge">
<title>User&#45;&gt;Follow</title>
<path fill="none" stroke="#82445f" d="M282.4037,-89.1779C269.9138,-82.1931 257.4307,-74.0803 254.0598,-68 246.3289,-54.0551 258.61,-42.1693 273.7926,-33.4894"/>
<ellipse fill="none" stroke="#82445f" cx="286.1747" cy="-91.2266" rx="4" ry="4"/>
<polygon fill="#82445f" stroke="#82445f" points="274.056,-33.3531 285.0056,-32.7547 278.4969,-31.0555 282.9378,-28.7579 282.9378,-28.7579 282.9378,-28.7579 278.4969,-31.0555 280.8699,-24.7612 274.056,-33.3531 274.056,-33.3531"/>
<text text-anchor="middle" x="302.5017" y="-56.8" font-family="Times,serif" font-size="14.00" fill="#000000">follower_records</text>
</g>
<!-- User&#45;&gt;Follow -->
<g id="edge5" class="edge">
<title>User&#45;&gt;Follow</title>
<path fill="none" stroke="#689767" d="M336.9845,-85.6392C342.1389,-80.5574 346.8488,-74.6003 349.6877,-68 354.1194,-57.6971 348.8539,-47.6009 340.9689,-39.2089"/>
<ellipse fill="none" stroke="#689767" cx="333.7889" cy="-88.5136" rx="4" ry="4"/>
<polygon fill="#689767" stroke="#689767" points="340.8696,-39.1167 336.606,-29.0136 337.2064,-35.7136 333.5432,-32.3105 333.5432,-32.3105 333.5432,-32.3105 337.2064,-35.7136 330.4804,-35.6073 340.8696,-39.1167 340.8696,-39.1167"/>
<text text-anchor="middle" x="402.0085" y="-56.8" font-family="Times,serif" font-size="14.00" fill="#000000">following_records</text>
</g>
<!-- User&#45;&gt;User -->
<g id="edge4" class="edge">
<title>User&#45;&gt;User</title>
<path fill="none" stroke="#f6c976" d="M348.631,-106.9717C353.477,-106.4627 356.6877,-105.4722 356.6877,-104 356.6877,-102.5278 353.477,-101.5373 348.631,-101.0283"/>
<polygon fill="#f6c976" stroke="#f6c976" points="348.475,-106.9776 338.3071,-102.871 343.4788,-107.1726 338.4826,-107.3676 338.4826,-107.3676 338.4826,-107.3676 343.4788,-107.1726 338.6581,-111.8642 348.475,-106.9776 348.475,-106.9776"/>
<polygon fill="#f6c976" stroke="#f6c976" points="348.475,-101.0224 338.6581,-96.1358 343.4788,-100.8274 338.4826,-100.6324 338.4826,-100.6324 338.4826,-100.6324 343.4788,-100.8274 338.3071,-105.129 348.475,-101.0224 348.475,-101.0224"/>
<text text-anchor="middle" x="383.1257" y="-99.8" font-family="Times,serif" font-size="14.00" fill="#000000">followers</text>
</g>
<!-- User&#45;&gt;User -->
<g id="edge6" class="edge">
<title>User&#45;&gt;User</title>
<path fill="none" stroke="#59b75e" d="M348.0477,-110.1092C376.6773,-111.9229 409.5637,-109.8865 409.5637,-104 409.5637,-98.1135 376.6773,-96.0771 348.0477,-97.8908"/>
<polygon fill="#59b75e" stroke="#59b75e" points="347.728,-110.0831 338.1287,-104.7819 342.7447,-109.675 337.7614,-109.2668 337.7614,-109.2668 337.7614,-109.2668 342.7447,-109.675 337.3941,-113.7518 347.728,-110.0831 347.728,-110.0831"/>
<polygon fill="#59b75e" stroke="#59b75e" points="347.728,-97.9169 337.3941,-94.2482 342.7447,-98.325 337.7614,-98.7332 337.7614,-98.7332 337.7614,-98.7332 342.7447,-98.325 338.1287,-103.2181 347.728,-97.9169 347.728,-97.9169"/>
<text text-anchor="middle" x="439.5085" y="-99.8" font-family="Times,serif" font-size="14.00" fill="#000000">followings</text>
</g>
</g>
</svg>
